<svg xmlns="http://www.w3.org/2000/svg" version="1.1" viewBox="-5.0 -10.0 110.0 135.0"  fill="gold">
 <path d="m51.211 29.422 4.7188 14.578h15.301c0.55078 0 1.0352 0.35547 1.207 0.88281 0.16797 0.52344-0.019531 1.0938-0.46875 1.418l-12.371 9 4.7305 14.5c0.19531 0.53516 0.003906 1.1367-0.46094 1.4648-0.46875 0.32812-1.0938 0.30469-1.5391-0.054687l-12.328-8.9922-12.371 9c-0.44141 0.36328-1.0703 0.38281-1.5352 0.054688-0.46484-0.32813-0.65625-0.92578-0.46484-1.4648l4.7695-14.559-12.398-8.9883c-0.44531-0.32422-0.63281-0.89844-0.46484-1.4219 0.16797-0.52344 0.65625-0.87891 1.2031-0.87891h15.301l4.7188-14.539h0.003907c0.14844-0.55469 0.65234-0.9375 1.2227-0.9375 0.57422 0 1.0742 0.38281 1.2266 0.9375z"/>
</svg>